# xmcd
#
# Track frame offsets:
#  150
#  16417
#  37334
#  55591
#  73750
#  93355
#  110949
#  133374
#  151958
#  169440
#  186882
#  208034
#  228051
#  247318
#  266135
#
# Disc length: 3831 seconds
#
# Revision: 0
# Processed by: cddbd v1.4PL0 Copyright (c) Steve Scherf et al.
# Submitted via: AltoMP3_Maker 3.0
#
DISCID=e70ef50f
DTITLE=蔡依林/Jolin - 什么样的爱/What kind of love
DYEAR=1900
DGENRE=
TTITLE0=Don't Sotp
TTITLE1=你快乐吗
TTITLE2=什么样的爱
TTITLE3=You Gotta Know
TTITLE4=永恒
TTITLE5=嗨
TTITLE6=孤单的人总说无所谓
TTITLE7=漂浮
TTITLE8=唱这首歌
TTITLE9=Sugar Sugar
TTITLE10=Because of You
TTITLE11=我知道你很难过
TTITLE12=猜想
TTITLE13=你是谁
TTITLE14=怪我太年轻
EXTD=
EXTT0=
EXTT1=
EXTT2=
EXTT3=
EXTT4=
EXTT5=
EXTT6=
EXTT7=
EXTT8=
EXTT9=
EXTT10=
EXTT11=
EXTT12=
EXTT13=
EXTT14=
PLAYORDER=
